<svg width="32" height="32" viewBox="0 0 32 32" fill="none" xmlns="http://www.w3.org/2000/svg">
<path fill-rule="evenodd" clip-rule="evenodd" d="M16.3194 3.20001C22.1421 3.20001 26.8794 7.97313 26.8794 13.8407C26.8794 21.0535 18.6157 28.16 16.3194 28.16C14.0231 28.16 5.7594 21.0535 5.7594 13.8407C5.7594 7.97313 10.4967 3.20001 16.3194 3.20001ZM16.3194 5.12001C11.5552 5.12001 7.6794 9.03297 7.6794 13.8407C7.6794 19.9578 14.8781 25.9175 16.3194 26.2349C17.7607 25.9162 24.9594 19.9565 24.9594 13.8407C24.9594 9.03297 21.0836 5.12001 16.3194 5.12001ZM16.3207 9.60001C18.6144 9.60001 20.4807 11.4663 20.4807 13.7613C20.4807 16.0551 18.6144 17.92 16.3207 17.92C14.0269 17.92 12.1607 16.0551 12.1607 13.7613C12.1607 11.4663 14.0269 9.60001 16.3207 9.60001ZM16.3207 11.52C15.0855 11.52 14.0807 12.5248 14.0807 13.7613C14.0807 14.9965 15.0855 16 16.3207 16C17.5559 16 18.5607 14.9965 18.5607 13.7613C18.5607 12.5248 17.5559 11.52 16.3207 11.52Z" fill="#6C8947"/>
</svg>
