<svg width="32" height="32" viewBox="0 0 32 32" fill="none" xmlns="http://www.w3.org/2000/svg">
<path fill-rule="evenodd" clip-rule="evenodd" d="M21.9634 3.20001C26.2258 3.20001 29.4399 6.67777 29.4399 11.2896V20.0807C29.4399 22.441 28.6053 24.5735 27.0885 26.0864C25.7279 27.4419 23.9627 28.16 21.9839 28.16H9.37202C7.39698 28.16 5.63314 27.4432 4.27122 26.0864C2.75442 24.5735 1.91986 22.441 1.91986 20.0807V11.2896C1.91986 6.67777 5.13394 3.20001 9.39634 3.20001H21.9634ZM21.9634 5.12001H9.39634C6.17714 5.12001 3.83986 7.71457 3.83986 11.2896V20.0807C3.83986 21.9277 4.47474 23.5776 5.62674 24.7258C6.62002 25.7178 7.91666 26.24 9.37586 26.24H21.9634C21.9659 26.2375 21.9762 26.24 21.9839 26.24C23.4443 26.24 24.7397 25.7178 25.733 24.7258C26.8863 23.5776 27.5199 21.9277 27.5199 20.0807V11.2896C27.5199 7.71457 25.1826 5.12001 21.9634 5.12001ZM23.9807 11.0449C24.3147 11.4558 24.252 12.0599 23.8411 12.3953L18.1528 17.0186C17.4335 17.5895 16.5733 17.875 15.7144 17.875C14.8581 17.875 14.0043 17.5921 13.2901 17.0263L7.5493 12.3978C7.13586 12.065 7.07186 11.4596 7.40338 11.0474C7.73746 10.6366 8.34162 10.5713 8.75378 10.9028L14.4895 15.5262C15.2101 16.097 16.2251 16.097 16.9509 15.521L22.629 10.9054C23.0411 10.5687 23.6453 10.6327 23.9807 11.0449Z" fill="#6C8947"/>
</svg>
