<svg width="32" height="32" viewBox="0 0 32 32" fill="none" xmlns="http://www.w3.org/2000/svg">
<path fill-rule="evenodd" clip-rule="evenodd" d="M9.16161 3.20052C10.5914 3.21972 11.6103 4.29108 12.8992 5.6466C13.2179 5.98068 13.5623 6.34548 13.9475 6.72948C15.8151 8.59828 15.2839 10.1228 14.8551 11.3464C14.3891 12.6815 13.9859 13.8335 16.4 16.2476C18.8141 18.6616 19.9648 18.2584 21.2986 17.7887C22.5235 17.3612 24.0442 16.8261 25.9155 18.6949C26.2957 19.0751 26.6541 19.4156 26.9869 19.7317C28.3475 21.0271 29.4227 22.0498 29.4409 23.4834C29.4547 24.7045 28.7123 25.9512 26.8794 27.7842L26.0679 27.2338L26.7552 27.9032C26.3495 28.3192 25.2704 29.4277 23.1571 29.4405H23.1187C19.929 29.4405 15.7703 26.901 10.7578 21.8898C5.72481 16.8581 3.18145 12.6866 3.20055 9.49044C3.21217 7.37844 4.31937 6.29684 4.73537 5.89108L4.77088 5.8523L4.85697 5.76564C6.69377 3.92884 7.95585 3.17364 9.16161 3.20052ZM9.13729 5.12052H9.12705C8.55225 5.12052 7.67933 5.69652 6.46187 6.87911L6.2174 7.11919L6.22017 7.1186C6.22171 7.1186 6.19928 7.14256 6.16368 7.17887L6.07809 7.26452C5.76833 7.56532 5.12705 8.19124 5.12059 9.50068C5.11041 11.3324 6.31489 14.7333 12.1146 20.5317C17.8861 26.302 21.2819 27.5205 23.1187 27.5205H23.1456C24.4551 27.5128 25.0797 26.8716 25.3805 26.5631C25.4714 26.4696 25.5456 26.3992 25.5981 26.357C26.8743 25.0732 27.5271 24.1196 27.5207 23.5064C27.513 22.8818 26.736 22.1445 25.6621 21.1218C25.3203 20.798 24.9491 20.4434 24.5575 20.0517C23.5411 19.0392 23.0407 19.212 21.9335 19.6012C20.4039 20.1375 18.3085 20.8722 15.0432 17.6044C11.7767 14.3391 12.5088 12.2437 13.0426 10.7128C13.4291 9.60692 13.6058 9.10388 12.5907 8.08756C12.1939 7.69076 11.8368 7.31444 11.5079 6.96884C10.4915 5.90132 9.75809 5.12948 9.13729 5.12052ZM20.1557 7.75412C22.8193 8.27124 24.8763 10.3269 25.3947 12.9919C25.4958 13.5141 25.1566 14.0172 24.6369 14.1183C24.5742 14.1298 24.5128 14.1362 24.4513 14.1362C24.0008 14.1362 23.6001 13.8188 23.5105 13.3605C23.1419 11.4661 21.6814 10.0056 19.7896 9.63828C19.2686 9.53716 18.9294 9.03412 19.0305 8.51316C19.1317 7.9922 19.6437 7.65172 20.1557 7.75412ZM20.079 3.20782C25.2988 3.78766 29.3526 7.8363 29.9376 13.0549C29.9964 13.5822 29.6175 14.0571 29.0915 14.116C29.0556 14.1198 29.0185 14.1224 28.9827 14.1224C28.5001 14.1224 28.0854 13.7601 28.0304 13.2699C27.5452 8.94862 24.1891 5.59502 19.8665 5.11502C19.3404 5.05614 18.9603 4.58254 19.0191 4.05518C19.0767 3.5291 19.5465 3.14126 20.079 3.20782Z" fill="#6C8947"/>
</svg>
