<svg width="35" height="30" viewBox="0 0 35 30" fill="none" xmlns="http://www.w3.org/2000/svg">
<path fill-rule="evenodd" clip-rule="evenodd" d="M12.7926 14.2258C14.3217 15.9518 15.8507 17.6777 17.3844 19.4037C17.9721 20.0651 18.8584 19.458 18.9502 18.765C19.8318 12.1375 24.2078 6.1578 30.2001 3.10003C31.2516 2.56548 30.324 0.998079 29.2725 1.53716C22.6557 4.91204 18.0823 11.5078 17.1181 18.765C17.6415 18.5521 18.165 18.3391 18.6839 18.1262C17.1548 16.4003 15.6258 14.6743 14.0921 12.9483C13.3115 12.065 12.0166 13.3515 12.7926 14.2258V14.2258Z" fill="#D94A3D"/>
<path fill-rule="evenodd" clip-rule="evenodd" d="M21.0979 1.02418C16.092 -1.02832 10.117 0.136117 5.95618 3.45274C1.68968 6.85998 0.137393 12.51 1.44628 17.6888C2.08924 20.2306 3.42108 22.641 5.327 24.4761C7.62789 26.6917 10.7049 28.0192 13.8233 28.64C19.6191 29.7953 26.315 28.9435 30.8157 24.8748C34.6964 21.3588 36.1799 14.9295 33.1442 10.4258C32.7768 9.87757 32.3497 9.37007 31.8721 8.91246C31.027 8.0969 29.7227 9.37915 30.5724 10.1947C33.9341 13.4298 33.4519 19.1342 30.5632 22.5187C27.0728 26.6101 21.1622 27.7338 16.0047 27.1584C13.1022 26.8321 10.2135 25.9124 7.83454 24.2088C5.9516 22.8631 4.51872 20.8967 3.70583 18.7581C2.04791 14.3903 2.70006 9.24776 6.04804 5.82239C9.73127 2.05723 15.7016 0.761394 20.6111 2.76858C21.0703 2.95435 21.6214 2.56469 21.7409 2.13425C21.8878 1.61773 21.5618 1.20995 21.0979 1.02419L21.0979 1.02418Z" fill="#6C8947"/>
</svg>
