<svg width="82" height="82" viewBox="0 0 82 82" fill="none" xmlns="http://www.w3.org/2000/svg">
<circle cx="41" cy="41" r="41" fill="#6C8947"/>
<path fill-rule="evenodd" clip-rule="evenodd" d="M43.2897 45.3884C44.895 45.3884 46.2017 46.6857 46.2017 48.2804V52.3817C46.2017 52.7244 46.4763 52.999 46.8283 53.007H49.3697C51.3723 53.007 53.0003 51.399 53.0003 49.423V37.791C52.991 37.111 52.667 36.471 52.111 36.0457L43.3203 29.035C42.1403 28.1004 40.4897 28.1004 39.3057 29.0377L30.575 36.043C29.9977 36.4817 29.6737 37.1217 29.667 37.8137V49.423C29.667 51.399 31.295 53.007 33.2977 53.007H35.863C36.2243 53.007 36.5177 52.7204 36.5177 52.3684C36.5177 52.291 36.527 52.2137 36.543 52.1404V48.2804C36.543 46.695 37.8417 45.399 39.435 45.3884H43.2897ZM49.3697 55.007H46.8043C45.335 54.9724 44.2017 53.819 44.2017 52.3817V48.2804C44.2017 47.7884 43.7923 47.3884 43.2897 47.3884H39.4417C38.9497 47.391 38.543 47.7924 38.543 48.2804V52.3684C38.543 52.4684 38.5297 52.5644 38.5017 52.655C38.3577 53.975 37.2297 55.007 35.863 55.007H33.2977C30.1923 55.007 27.667 52.5017 27.667 49.423V37.8044C27.6803 36.479 28.291 35.2657 29.3457 34.467L38.059 27.4737C39.9777 25.9537 42.651 25.9537 44.5657 27.471L53.3417 34.471C54.3723 35.2564 54.983 36.467 55.0003 37.7764V49.423C55.0003 52.5017 52.475 55.007 49.3697 55.007Z" fill="white"/>
</svg>
