<svg width="82" height="82" viewBox="0 0 82 82" fill="none" xmlns="http://www.w3.org/2000/svg">
<circle cx="41" cy="41" r="41" fill="#6C8947"/>
<path fill-rule="evenodd" clip-rule="evenodd" d="M38.5297 31.938C39.107 32.3913 39.439 33.0673 39.439 33.7926C39.439 39.6393 39.6363 41.2126 40.443 41.8113C40.9723 42.202 41.6977 42.198 44.1417 42.13C45.2777 42.0966 46.7323 42.054 48.6377 42.054C49.3977 42.054 50.1137 42.3793 50.599 42.946C51.0497 43.4726 51.247 44.1606 51.143 44.838C50.2523 50.6046 45.3457 54.7926 39.4763 54.7926C32.9643 54.7926 27.667 49.4953 27.667 42.9846C27.667 37.822 31.571 32.6593 36.3697 31.478C37.119 31.2953 37.9243 31.466 38.5297 31.938ZM36.9763 33.4046C36.9337 33.4046 36.891 33.41 36.8483 33.4206C32.8883 34.3953 29.667 38.686 29.667 42.9846C29.667 48.3926 34.067 52.7926 39.4763 52.7926C44.3523 52.7926 48.427 49.3193 49.1657 44.5326C49.171 44.4926 49.1897 44.3766 49.0803 44.2473C48.9763 44.126 48.811 44.054 48.6377 44.054C46.7563 44.054 45.3203 44.0966 44.199 44.1286C41.4843 44.21 40.3617 44.2406 39.2523 43.418C37.6661 42.2428 37.4575 40.2672 37.4403 34.7233L37.439 33.7926C37.439 33.6806 37.391 33.5873 37.295 33.5126C37.2057 33.442 37.0923 33.4046 36.9763 33.4046ZM51.7342 29.9784C54.0782 32.321 55.5662 35.3997 55.5235 37.8224C55.5075 38.7677 54.8209 39.557 53.8929 39.697C52.0822 39.9704 49.9622 40.053 48.0862 40.053C46.3395 40.053 44.8022 39.9824 43.9182 39.9317C42.8062 39.8664 41.9209 38.9797 41.8569 37.8677C41.7529 36.105 41.5275 31.6264 41.6875 28.1624C41.7315 27.1557 42.5449 26.3544 43.5395 26.337C46.3889 26.2544 49.3289 27.577 51.7342 29.9784ZM43.7102 28.3357H43.6809C43.5342 31.6944 43.7515 36.033 43.8529 37.7517C43.8582 37.8544 43.9329 37.929 44.0342 37.9344C45.4049 38.013 50.1275 38.2317 53.5236 37.7317C53.5315 35.8597 52.2502 33.321 50.3209 31.393C48.3422 29.417 46.0009 28.3357 43.7102 28.3357Z" fill="white"/>
</svg>
