<svg width="82" height="82" viewBox="0 0 82 82" fill="none" xmlns="http://www.w3.org/2000/svg">
<circle cx="41" cy="41" r="41" fill="#6C8947"/>
<path fill-rule="evenodd" clip-rule="evenodd" d="M53.3639 44.6469C53.9146 44.6882 54.3266 45.1695 54.2853 45.7202L54.0319 49.0655C53.8226 51.8256 51.4933 53.9869 48.7266 53.9869H33.2599C30.4933 53.9869 28.1639 51.8256 27.9546 49.0655L27.7013 45.7202C27.6599 45.1695 28.0733 44.6882 28.6239 44.6469C29.1773 44.6269 29.6546 45.0175 29.6973 45.5695L29.9493 48.9135C30.0799 50.6362 31.5333 51.9869 33.2599 51.9869H48.7266C50.4533 51.9869 51.9079 50.6362 52.0373 48.9135L52.2906 45.5695C52.3333 45.0175 52.8226 44.6255 53.3639 44.6469ZM42.7135 27.6667C44.7174 27.6667 46.3776 29.1684 46.6276 31.1055L49.2537 31.1066C52.0483 31.1066 54.3203 33.3853 54.3203 36.1879V40.7733C54.3203 41.1293 54.131 41.4573 53.8257 41.6359C50.5346 43.5633 46.3655 44.6874 41.993 44.8374L41.9935 47.2355C41.9935 47.7875 41.5455 48.2355 40.9935 48.2355C40.4415 48.2355 39.9935 47.7875 39.9935 47.2355L39.9927 44.8377C35.6246 44.6891 31.4552 43.5647 28.1617 41.6359C27.855 41.4573 27.667 41.1293 27.667 40.7733V36.1746C27.667 33.3799 29.9457 31.1066 32.747 31.1066L35.3594 31.1055C35.6094 29.1684 37.2696 27.6667 39.2735 27.6667H42.7135ZM49.2537 33.1066H32.747C31.0483 33.1066 29.667 34.4826 29.667 36.1746V40.1906C32.8319 41.9103 36.822 42.8528 40.975 42.8546L40.9935 42.8529L41.0083 42.8534L41.6432 42.8468C45.5709 42.7532 49.3178 41.8214 52.3203 40.1906V36.1879C52.3203 34.4879 50.9457 33.1066 49.2537 33.1066ZM42.7135 29.6667H39.2735C38.3757 29.6667 37.6179 30.2778 37.394 31.1058H44.5931C44.3692 30.2778 43.6113 29.6667 42.7135 29.6667Z" fill="white"/>
</svg>
